<svg width="25" height="25" viewBox="0 0 25 25" fill="none" xmlns="http://www.w3.org/2000/svg">
<g clip-path="url(#clip0_1_24)">
<path d="M12.7013 4.82988C12.7813 4.82989 12.8605 4.81414 12.9345 4.78353C13.0084 4.75292 13.0755 4.70806 13.1321 4.65149C13.1887 4.59493 13.2335 4.52778 13.2642 4.45387C13.2948 4.37996 13.3106 4.30075 13.3106 4.22075V0.609179C13.3113 0.528724 13.2961 0.448924 13.2658 0.374386C13.2355 0.299848 13.1907 0.232048 13.1341 0.174902C13.0774 0.117756 13.01 0.0723953 12.9358 0.0414392C12.8615 0.0104832 12.7819 -0.00545502 12.7014 -0.00545502C12.6209 -0.00545502 12.5413 0.0104832 12.467 0.0414392C12.3928 0.0723953 12.3254 0.117756 12.2687 0.174902C12.2121 0.232048 12.1673 0.299848 12.137 0.374386C12.1068 0.448924 12.0915 0.528724 12.0922 0.609179V4.22075C12.0923 4.38229 12.1564 4.53721 12.2707 4.65144C12.3849 4.76567 12.5398 4.82986 12.7013 4.82988Z" fill="#26A9E0"/>
<path d="M5.83581 7.83281L2.70812 6.02705C2.56831 5.94792 2.40289 5.92722 2.24789 5.96947C2.09288 6.01171 1.96084 6.11348 1.88051 6.25261C1.80018 6.39174 1.77806 6.55697 1.81897 6.71233C1.85988 6.86769 1.96051 7.0006 2.09894 7.08213L5.22668 8.88789C5.29596 8.92789 5.37243 8.95385 5.45174 8.96429C5.53105 8.97473 5.61164 8.96944 5.68891 8.94874C5.76618 8.92803 5.83861 8.89231 5.90207 8.84361C5.96554 8.79492 6.01879 8.73419 6.05878 8.66492C6.09878 8.59564 6.12474 8.51916 6.13518 8.43985C6.14562 8.36054 6.14034 8.27995 6.11963 8.20269C6.09893 8.12542 6.0632 8.05298 6.01451 7.98952C5.96581 7.92606 5.90509 7.87281 5.83581 7.83281Z" fill="#26A9E0"/>
<path d="M5.22666 16.1121L2.09892 17.9179C2.02892 17.9575 1.96745 18.0106 1.91807 18.0741C1.8687 18.1376 1.83238 18.2102 1.81123 18.2878C1.79008 18.3655 1.78451 18.4465 1.79484 18.5263C1.80517 18.606 1.83119 18.683 1.87142 18.7526C1.91164 18.8223 1.96526 18.8833 2.02918 18.9321C2.0931 18.981 2.16606 19.0166 2.24385 19.0371C2.32164 19.0576 2.40271 19.0625 2.4824 19.0515C2.56208 19.0405 2.63879 19.0138 2.7081 18.973L5.83579 17.1671C5.90507 17.1271 5.96579 17.0739 6.01449 17.0104C6.06318 16.947 6.0989 16.8745 6.11961 16.7973C6.14031 16.72 6.1456 16.6394 6.13516 16.5601C6.12472 16.4808 6.09876 16.4043 6.05876 16.335C6.01877 16.2658 5.96552 16.205 5.90205 16.1563C5.83859 16.1076 5.76616 16.0719 5.68889 16.0512C5.53284 16.0094 5.36657 16.0313 5.22666 16.1121Z" fill="#26A9E0"/>
<path d="M12.7013 20.1701C12.5397 20.1701 12.3848 20.2342 12.2706 20.3485C12.1563 20.4627 12.0921 20.6177 12.0921 20.7792V24.3908C12.0914 24.4713 12.1066 24.5511 12.1369 24.6256C12.1672 24.7001 12.212 24.7679 12.2686 24.8251C12.3252 24.8822 12.3926 24.9276 12.4669 24.9586C12.5412 24.9895 12.6208 25.0055 12.7013 25.0055C12.7817 25.0055 12.8614 24.9895 12.9357 24.9586C13.0099 24.9276 13.0773 24.8822 13.134 24.8251C13.1906 24.7679 13.2354 24.7001 13.2656 24.6256C13.2959 24.5511 13.3112 24.4713 13.3104 24.3908V20.7792C13.3104 20.6177 13.2463 20.4628 13.132 20.3485C13.0178 20.2343 12.8629 20.1701 12.7013 20.1701Z" fill="#26A9E0"/>
<path d="M16.9344 5.55948C17.0037 5.59952 17.0802 5.62551 17.1595 5.63598C17.2388 5.64644 17.3194 5.64117 17.3967 5.62047C17.474 5.59976 17.5464 5.56403 17.6099 5.51531C17.6734 5.46659 17.7266 5.40583 17.7666 5.33653L18.706 3.70977C18.7868 3.56982 18.8087 3.40352 18.7669 3.24744C18.725 3.09137 18.6229 2.9583 18.483 2.87752C18.343 2.79673 18.1767 2.77485 18.0206 2.81669C17.8646 2.85852 17.7315 2.96064 17.6507 3.10059L16.7115 4.72735C16.6307 4.86726 16.6088 5.03353 16.6506 5.18958C16.6924 5.34564 16.7945 5.47869 16.9344 5.55948Z" fill="#26A9E0"/>
<path d="M7.97507 5.14073C8.05585 5.28064 8.1889 5.38273 8.34495 5.42455C8.501 5.46636 8.66727 5.44448 8.80718 5.3637C8.94709 5.28292 9.04918 5.14988 9.091 4.99383C9.13282 4.83778 9.11093 4.67151 9.03015 4.5316L8.0908 2.90484C8.05181 2.83367 7.99899 2.77101 7.93545 2.72053C7.87191 2.67006 7.79892 2.63279 7.72078 2.61092C7.64263 2.58904 7.5609 2.583 7.48039 2.59315C7.39988 2.6033 7.32221 2.62944 7.25194 2.67002C7.18167 2.71061 7.12021 2.76483 7.07118 2.82949C7.02216 2.89415 6.98655 2.96796 6.96644 3.04658C6.94634 3.1252 6.94214 3.20704 6.95411 3.28731C6.96607 3.36757 6.99395 3.44463 7.03611 3.51397L7.97507 5.14073Z" fill="#26A9E0"/>
<path d="M3.96482 12.9133C4.04528 12.914 4.12508 12.8988 4.19961 12.8685C4.27415 12.8382 4.34195 12.7935 4.3991 12.7369C4.45624 12.6802 4.50161 12.6128 4.53256 12.5386C4.56352 12.4643 4.57946 12.3846 4.57946 12.3042C4.57946 12.2237 4.56352 12.1441 4.53256 12.0698C4.50161 11.9955 4.45624 11.9281 4.3991 11.8715C4.34195 11.8149 4.27415 11.7701 4.19961 11.7398C4.12508 11.7095 4.04528 11.6943 3.96482 11.695H2.08645C1.92584 11.6965 1.77229 11.7613 1.65923 11.8753C1.54616 11.9894 1.48273 12.1436 1.48273 12.3042C1.48273 12.4648 1.54616 12.6189 1.65923 12.733C1.77229 12.8471 1.92584 12.9119 2.08645 12.9133H3.96482Z" fill="#26A9E0"/>
<path d="M8.46814 19.4405C8.39886 19.4005 8.32238 19.3745 8.24307 19.3641C8.16375 19.3536 8.08316 19.3589 8.00589 19.3796C7.92861 19.4003 7.85618 19.4361 7.79271 19.4848C7.72925 19.5335 7.676 19.5942 7.63601 19.6635L6.6968 21.2902C6.6568 21.3595 6.63083 21.4359 6.62039 21.5153C6.60994 21.5946 6.61522 21.6752 6.63593 21.7524C6.65663 21.8297 6.69235 21.9022 6.74105 21.9656C6.78975 22.0291 6.85047 22.0824 6.91975 22.1224C6.98903 22.1624 7.06551 22.1883 7.14483 22.1988C7.22414 22.2092 7.30474 22.2039 7.38201 22.1832C7.45929 22.1625 7.53173 22.1268 7.5952 22.0781C7.65867 22.0294 7.71193 21.9687 7.75193 21.8994L8.69109 20.2726C8.73109 20.2034 8.75706 20.1269 8.7675 20.0476C8.77795 19.9683 8.77267 19.8877 8.75197 19.8104C8.73126 19.7331 8.69554 19.6607 8.64684 19.5972C8.59814 19.5337 8.53742 19.4805 8.46814 19.4405Z" fill="#26A9E0"/>
<path d="M17.4274 19.8592C17.3459 19.7208 17.213 19.6202 17.0576 19.5793C16.9023 19.5383 16.737 19.5605 16.5979 19.6408C16.4588 19.7211 16.357 19.8532 16.3148 20.0082C16.2725 20.1632 16.2932 20.3286 16.3724 20.4684L17.3116 22.0952C17.3931 22.2336 17.526 22.3342 17.6814 22.3751C17.8367 22.416 18.002 22.3939 18.1411 22.3136C18.2802 22.2333 18.382 22.1012 18.4242 21.9462C18.4665 21.7912 18.4458 21.6258 18.3666 21.486L17.4274 19.8592Z" fill="#26A9E0"/>
<path d="M17.3309 6.30821C16.4963 6.30735 15.6703 6.47617 14.903 6.8044C13.978 6.44724 12.9799 6.32074 11.9951 6.43583C11.0103 6.55092 10.0683 6.90413 9.25056 7.46494C8.43285 8.02575 7.76403 8.77728 7.30193 9.65455C6.83982 10.5318 6.59833 11.5084 6.59833 12.5C6.59833 13.4915 6.83982 14.4681 7.30193 15.3454C7.76403 16.2227 8.43285 16.9742 9.25056 17.535C10.0683 18.0958 11.0103 18.449 11.9951 18.5641C12.9799 18.6792 13.978 18.5527 14.903 18.1956C15.7476 18.5554 16.6616 18.7229 17.579 18.686C18.4963 18.6491 19.3939 18.4086 20.2068 17.982C21.0198 17.5554 21.7277 16.9533 22.2792 16.2194C22.8308 15.4855 23.2123 14.6381 23.396 13.7386C23.5797 12.8391 23.5611 11.91 23.3415 11.0186C23.1219 10.1272 22.7068 9.29573 22.1262 8.58451C21.5457 7.87329 20.8142 7.30008 19.9849 6.90639C19.1555 6.51269 18.249 6.30837 17.3309 6.30821ZM12.7013 17.387C12.0277 17.3866 11.3615 17.2469 10.7445 16.9768C10.1275 16.7067 9.57298 16.3119 9.11577 15.8173C8.65855 15.3227 8.30852 14.7389 8.08763 14.1026C7.86674 13.4663 7.77977 12.7912 7.83218 12.1197C7.88459 11.4482 8.07525 10.7947 8.39218 10.2004C8.70912 9.60608 9.14549 9.08368 9.6739 8.666C10.2023 8.24831 10.8114 7.94437 11.4628 7.77325C12.1143 7.60212 12.7941 7.56751 13.4595 7.67159C12.7355 8.25092 12.151 8.98568 11.7493 9.82147C11.3477 10.6573 11.1391 11.5727 11.1391 12.5C11.1391 13.4273 11.3477 14.3427 11.7493 15.1785C12.151 16.0143 12.7355 16.749 13.4595 17.3284C13.2087 17.3674 12.9552 17.3871 12.7013 17.387ZM17.3309 17.4734C16.3472 17.4734 15.3857 17.1818 14.5678 16.6353C13.7499 16.0888 13.1125 15.312 12.736 14.4033C12.3596 13.4945 12.2611 12.4945 12.453 11.5297C12.6449 10.565 13.1186 9.6788 13.8141 8.98325C14.5097 8.28771 15.3959 7.81403 16.3606 7.62213C17.3254 7.43023 18.3254 7.52872 19.2341 7.90515C20.1429 8.28158 20.9197 8.91903 21.4661 9.73691C22.0126 10.5548 22.3043 11.5164 22.3043 12.5C22.3028 13.8186 21.7784 15.0827 20.846 16.0151C19.9136 16.9475 18.6495 17.4719 17.3309 17.4734Z" fill="#26A9E0"/>
</g>
<defs>
<clipPath id="clip0_1_24">
<rect width="25" height="25" fill="white"/>
</clipPath>
</defs>
</svg>
