<svg width="34" height="34" viewBox="0 0 34 34" fill="none" xmlns="http://www.w3.org/2000/svg">
<path d="M32.3398 16.519H20.7188V14.4766H25.7414C26.6568 14.4766 27.4015 13.7318 27.4015 12.8164V1.66016C27.4015 0.744746 26.6568 0 25.7414 0H8.25861C7.3432 0 6.59846 0.744746 6.59846 1.66016V12.8164C6.59846 13.7318 7.3432 14.4766 8.25861 14.4766H13.2812V16.519H1.66016C0.744746 16.519 0 17.2637 0 18.1791V20.8354C0 21.6719 0.622027 22.3655 1.42773 22.4789V32.3398C1.42773 33.2553 2.17248 34 3.08789 34H5.74414C6.65955 34 7.4043 33.2553 7.4043 32.3398V22.4955H16.0039V25.5221C16.0039 26.4375 16.7487 27.1823 17.6641 27.1823H26.5957V32.3398C26.5957 33.2553 27.3404 34 28.2559 34H30.9121C31.8275 34 32.5723 33.2553 32.5723 32.3398V22.4789C33.378 22.3655 34 21.6719 34 20.8354V18.1791C34 17.2637 33.2553 16.519 32.3398 16.519ZM8.59064 1.99219H25.4094V12.4844C23.3982 12.4844 10.658 12.4844 8.59064 12.4844V1.99219ZM15.2734 14.4766H18.7266V16.519H15.2734V14.4766ZM1.99219 18.5111H32.0078V20.5033C30.9654 20.5033 4.80237 20.5033 1.99219 20.5033V18.5111ZM5.41211 32.0078H3.41992V22.4955H5.41211V32.0078ZM17.9961 25.1901V22.4955H26.5957V25.1901H17.9961ZM30.5801 32.0078H28.5879C28.5879 30.9091 28.5879 23.5939 28.5879 22.4955H30.5801V32.0078Z" fill="#252D38"/>
</svg>
