<svg width="20" height="20" viewBox="0 0 20 20" fill="none" xmlns="http://www.w3.org/2000/svg">
<path d="M10.5727 17.2996C9.9532 17.9135 9.94878 18.9132 10.5627 19.5325C11.1765 20.1519 12.1763 20.1564 12.7956 19.5425L15.8296 16.5355C16.9583 15.4168 17.8998 14.4838 18.5711 13.6479C19.2751 12.7712 19.8106 11.8499 19.9537 10.7274C19.9845 10.4859 19.9999 10.243 19.9999 10C19.9999 9.75708 19.9845 9.51413 19.9537 9.27266C19.8106 8.15014 19.2751 7.22888 18.5711 6.35204C17.8998 5.51625 16.9584 4.5832 15.8296 3.46446L12.7956 0.457526C12.1763 -0.156367 11.1765 -0.151946 10.5627 0.46742C9.94878 1.08679 9.9532 2.08657 10.5727 2.70046L13.5419 5.6432C14.7522 6.84277 15.5634 7.65035 16.1089 8.3295C16.1151 8.33729 16.1214 8.34508 16.1275 8.35266C16.1459 8.37582 16.1639 8.39856 16.1814 8.42108L1.57894 8.42108C0.706945 8.42108 1.90734e-06 9.12803 1.90734e-06 10C1.90734e-06 10.872 0.706945 11.579 1.57894 11.579L16.1814 11.579C16.1581 11.6089 16.1339 11.6394 16.1089 11.6706C15.5634 12.3498 14.7522 13.1572 13.5419 14.3568L10.5727 17.2996Z" fill="#26A9E0"/>
</svg>
