<svg width="35" height="31" viewBox="0 0 35 31" fill="none" xmlns="http://www.w3.org/2000/svg">
<path d="M28.6387 6.70687C28.6387 8.17268 29.8287 9.36274 31.2945 9.36274L34.5 12.5683L29.6917 17.3766L26.4863 14.1711C26.4863 12.7053 25.2962 11.5152 23.8304 11.5152C23.0976 11.5152 22.4336 11.8127 21.9528 12.2934L20.8766 13.3697L16.8697 9.36274L20.0753 6.15723C18.4725 4.55443 16.4691 2.55097 10.4587 4.55443C13.6642 1.34891 20.0753 -1.85668 24.8835 2.95171L28.6387 6.70687Z" stroke="#252D38" stroke-miterlimit="10" stroke-linecap="round" stroke-linejoin="round"/>
<path d="M5.33677 28.9086L20.8762 13.3691L16.8694 9.36218L1.32989 24.9016C0.223353 26.0082 0.223353 27.8021 1.32989 28.9086C2.43636 30.0151 4.2303 30.0151 5.33677 28.9086Z" stroke="#252D38" stroke-miterlimit="10" stroke-linecap="round" stroke-linejoin="round"/>
</svg>
