<svg width="34" height="34" viewBox="0 0 34 34" fill="none" xmlns="http://www.w3.org/2000/svg">
<path d="M13.4583 11.3333H2.12499C0.953414 11.3333 0 10.3799 0 9.20831V2.12499C0 0.953414 0.953414 0 2.12499 0H13.4583C14.6299 0 15.5833 0.953414 15.5833 2.12499V9.20831C15.5833 10.3799 14.6299 11.3333 13.4583 11.3333ZM2.12499 1.41666C1.73541 1.41666 1.41666 1.73399 1.41666 2.12499V9.20831C1.41666 9.5993 1.73541 9.91664 2.12499 9.91664H13.4583C13.8479 9.91664 14.1666 9.5993 14.1666 9.20831V2.12499C14.1666 1.73399 13.8479 1.41666 13.4583 1.41666H2.12499Z" fill="#252D38"/>
<path d="M13.4583 33.9999H2.12499C0.953414 33.9999 0 33.0465 0 31.8749V16.2917C0 15.1201 0.953414 14.1667 2.12499 14.1667H13.4583C14.6299 14.1667 15.5833 15.1201 15.5833 16.2917V31.8749C15.5833 33.0465 14.6299 33.9999 13.4583 33.9999ZM2.12499 15.5833C1.73541 15.5833 1.41666 15.9007 1.41666 16.2917V31.8749C1.41666 32.2659 1.73541 32.5833 2.12499 32.5833H13.4583C13.8479 32.5833 14.1666 32.2659 14.1666 31.8749V16.2917C14.1666 15.9007 13.8479 15.5833 13.4583 15.5833H2.12499Z" fill="#252D38"/>
<path d="M31.8743 34H20.541C19.3694 34 18.416 33.0466 18.416 31.875V24.7917C18.416 23.6201 19.3694 22.6667 20.541 22.6667H31.8743C33.0459 22.6667 33.9993 23.6201 33.9993 24.7917V31.875C33.9993 33.0466 33.0459 34 31.8743 34ZM20.541 24.0834C20.1514 24.0834 19.8326 24.4007 19.8326 24.7917V31.875C19.8326 32.266 20.1514 32.5833 20.541 32.5833H31.8743C32.2639 32.5833 32.5826 32.266 32.5826 31.875V24.7917C32.5826 24.4007 32.2639 24.0834 31.8743 24.0834H20.541Z" fill="#252D38"/>
<path d="M31.8743 19.8333H20.541C19.3694 19.8333 18.416 18.8799 18.416 17.7083V2.12499C18.416 0.953414 19.3694 0 20.541 0H31.8743C33.0459 0 33.9993 0.953414 33.9993 2.12499V17.7083C33.9993 18.8799 33.0459 19.8333 31.8743 19.8333ZM20.541 1.41666C20.1514 1.41666 19.8326 1.73399 19.8326 2.12499V17.7083C19.8326 18.0993 20.1514 18.4166 20.541 18.4166H31.8743C32.2639 18.4166 32.5826 18.0993 32.5826 17.7083V2.12499C32.5826 1.73399 32.2639 1.41666 31.8743 1.41666H20.541Z" fill="#252D38"/>
</svg>
